<svg xmlns="http://www.w3.org/2000/svg" style="display:none" aria-hidden="true">
  <symbol id="i-chart" viewBox="0 0 24 24"><path d="M3 3v18h18"/><path d="M7 16l4-6 4 3 5-7"/></symbol>
  <symbol id="i-clipboard" viewBox="0 0 24 24"><path d="M16 4h2a2 2 0 0 1 2 2v14a2 2 0 0 1-2 2H6a2 2 0 0 1-2-2V6a2 2 0 0 1 2-2h2"/><rect x="8" y="2" width="8" height="4" rx="1"/></symbol>
  <symbol id="i-building" viewBox="0 0 24 24"><path d="M3 21h18"/><path d="M5 21V7l8-4v18"/><path d="M19 21V11l-6-3"/><path d="M9 9v.01"/><path d="M9 12v.01"/><path d="M9 15v.01"/><path d="M9 18v.01"/></symbol>
  <symbol id="i-bell" viewBox="0 0 24 24"><path d="M18 8A6 6 0 0 0 6 8c0 7-3 9-3 9h18s-3-2-3-9"/><path d="M13.73 21a2 2 0 0 1-3.46 0"/></symbol>
  <symbol id="i-shield-lock" viewBox="0 0 24 24"><path d="M12 22s8-4 8-10V5l-8-3-8 3v7c0 6 8 10 8 10"/><rect x="9" y="10" width="6" height="5" rx="1"/><path d="M12 10V8a2 2 0 1 1 4 0v2"/></symbol>
  <symbol id="i-scan-face" viewBox="0 0 24 24"><path d="M3 7V5a2 2 0 0 1 2-2h2"/><path d="M17 3h2a2 2 0 0 1 2 2v2"/><path d="M21 17v2a2 2 0 0 1-2 2h-2"/><path d="M7 21H5a2 2 0 0 1-2-2v-2"/><circle cx="9" cy="10" r="1"/><circle cx="15" cy="10" r="1"/><path d="M9.5 15a3.5 3.5 0 0 0 5 0"/></symbol>
  <symbol id="i-pencil" viewBox="0 0 24 24"><path d="M12 20h9"/><path d="M16.5 3.5a2.12 2.12 0 0 1 3 3L7 19l-4 1 1-4Z"/></symbol>
  <symbol id="i-download" viewBox="0 0 24 24"><path d="M21 15v4a2 2 0 0 1-2 2H5a2 2 0 0 1-2-2v-4"/><polyline points="7 10 12 15 17 10"/><line x1="12" y1="15" x2="12" y2="3"/></symbol>
  <symbol id="i-hand" viewBox="0 0 24 24"><path d="M18 11V6a2 2 0 0 0-4 0v5"/><path d="M14 10V4a2 2 0 0 0-4 0v6"/><path d="M10 10.5V6a2 2 0 0 0-4 0v8c0 4.4 3.6 8 8 8h1a7 7 0 0 0 7-7v-4a2 2 0 0 0-4 0"/></symbol>
  <symbol id="i-search" viewBox="0 0 24 24"><circle cx="11" cy="11" r="8"/><line x1="21" y1="21" x2="16.65" y2="16.65"/></symbol>
  <symbol id="i-trending" viewBox="0 0 24 24"><polyline points="23 6 13.5 15.5 8.5 10.5 1 18"/><polyline points="17 6 23 6 23 12"/></symbol>
  <symbol id="i-file" viewBox="0 0 24 24"><path d="M14 2H6a2 2 0 0 0-2 2v16a2 2 0 0 0 2 2h12a2 2 0 0 0 2-2V8Z"/><polyline points="14 2 14 8 20 8"/></symbol>
  <symbol id="i-qr" viewBox="0 0 24 24"><rect x="3" y="3" width="7" height="7"/><rect x="14" y="3" width="7" height="7"/><rect x="3" y="14" width="7" height="7"/><path d="M14 14h3v3h-3z"/><path d="M20 17h1v1h-1z"/><path d="M17 20h3v1h-3z"/><path d="M20 20h1v1h-1z"/></symbol>
  <symbol id="i-brain" viewBox="0 0 24 24"><path d="M12 5a3 3 0 1 0-5.8 1.2 2.5 2.5 0 0 0-1.4 2.2 3 3 0 0 0 .6 5.8 3 3 0 0 0 6.6 0 3 3 0 0 0 .6-5.8 2.5 2.5 0 0 0-1.4-2.2A3 3 0 0 0 12 5Z"/><path d="M12 5v14"/><path d="M8 9h8"/><path d="M8 15h8"/></symbol>
  <symbol id="i-database" viewBox="0 0 24 24"><ellipse cx="12" cy="5" rx="9" ry="3"/><path d="M3 5v14c0 1.7 4 3 9 3s9-1.3 9-3V5"/><path d="M3 12c0 1.7 4 3 9 3s9-1.3 9-3"/></symbol>
  <symbol id="i-wifi-off" viewBox="0 0 24 24"><line x1="2" y1="2" x2="22" y2="22"/><path d="M8.5 16.5a5 5 0 0 1 7 0"/><path d="M2 8.82a15 15 0 0 1 4.17-2.65"/><path d="M10.66 5c4.01-.36 8.14.9 11.34 3.76"/><path d="M16.85 11.25a10 10 0 0 1 2.15 2.7"/><path d="M12 20h.01"/></symbol>
  <symbol id="i-shield-check" viewBox="0 0 24 24"><path d="M12 22s8-4 8-10V5l-8-3-8 3v7c0 6 8 10 8 10"/><path d="m9 12 2 2 4-4"/></symbol>
  <symbol id="i-lock" viewBox="0 0 24 24"><rect x="3" y="11" width="18" height="11" rx="2"/><path d="M7 11V7a5 5 0 0 1 10 0v4"/></symbol>
  <symbol id="i-chevron-left" viewBox="0 0 24 24"><polyline points="15 18 9 12 15 6"/></symbol>
  <symbol id="i-chevron-right" viewBox="0 0 24 24"><polyline points="9 18 15 12 9 6"/></symbol>
  <symbol id="i-arrow-up" viewBox="0 0 24 24"><line x1="12" y1="19" x2="12" y2="5"/><polyline points="5 12 12 5 19 12"/></symbol>
  <symbol id="i-play" viewBox="0 0 24 24"><polygon points="5 3 19 12 5 21 5 3"/></symbol>
  <symbol id="i-linkedin" viewBox="0 0 24 24"><path d="M16 8a6 6 0 0 1 6 6v7h-4v-7a2 2 0 0 0-4 0v7h-4v-12h4v2"/><rect x="2" y="9" width="4" height="12"/><circle cx="4" cy="4" r="2"/></symbol>
  <symbol id="i-mail" viewBox="0 0 24 24"><rect x="2" y="4" width="20" height="16" rx="2"/><path d="m22 7-8.97 5.7a1.94 1.94 0 0 1-2.06 0L2 7"/></symbol>
</svg>
